<?xml version="1.0" encoding="UTF-8"?> <svg xmlns="http://www.w3.org/2000/svg" width="420" height="80" viewBox="0 0 420 80" fill="none"><g clip-path="url(#clip0_113_572)"><g clip-path="url(#clip1_113_572)"><path d="M78.7002 0.700256H39.3501V40.0504H78.7002V0.700256Z" fill="#27ABE2"></path><path d="M39.3501 40.0504H0V79.4005H39.3501V40.0504Z" fill="#27ABE2"></path><path d="M70.8597 8.5408H7.84058V71.56H70.8597V8.5408Z" fill="#27ABE2"></path><path d="M19.1003 27.199V64.8395H31.3917V15.2613L19.1003 27.199Z" fill="white"></path><path d="M59.6 27.199V64.8395H47.3086V15.2613L59.6 27.199Z" fill="white"></path><path d="M45.5106 36.9849V64.8395H33.2192V25.0472L45.5106 36.9849Z" fill="white"></path><path d="M98.8617 18.2383V44.7076H104.079V28.2896L114.661 44.7076L124.977 28.4664V44.7076H130.666V18.2383H124.977L114.779 34.4205L104.079 18.2383H98.8617Z" fill="#1B1D1D"></path><path d="M159.316 23.5735V18.2383H132.965V44.7076H159.316V39.343H138.182V33.8015H153.745V28.6138H138.182V23.5735H159.316Z" fill="#1B1D1D"></path><path d="M188.321 18.2383H161.616V23.5735H172.286V44.7076H177.503V23.5735H188.321V18.2383Z" fill="#1B1D1D"></path><path d="M310.645 39.6083V18.2383H304.956V44.7076H307.815H310.645H326.326V39.6083H310.645Z" fill="#1B1D1D"></path><path d="M334.078 18.2383H328.625V44.7076H334.078V18.2383Z" fill="#1B1D1D"></path><path d="M362.611 18.2383H336.348V23.5735H346.93V44.7076H352.147V23.5735H362.611V18.2383Z" fill="#1B1D1D"></path><path d="M414.665 18.2383V36.1596L399.22 18.2383H393.413V44.7076H399.22V26.8747L414.665 44.7076H416.433H420V18.2383H414.665Z" fill="#1B1D1D"></path><path d="M239.549 18.2383H225.047C221.835 18.2383 219.211 20.8617 219.211 24.0745V38.9008C219.211 42.1137 221.835 44.737 225.047 44.737H239.549C242.762 44.737 245.386 42.1137 245.386 38.9008V24.0745C245.386 20.8617 242.762 18.2383 239.549 18.2383ZM240.198 38.0755C240.198 39.1661 239.314 40.0799 238.194 40.0799H225.932C224.841 40.0799 223.927 39.1956 223.927 38.0755V25.0178C223.927 23.9272 224.812 23.0134 225.932 23.0134H238.194C239.284 23.0134 240.198 23.8977 240.198 25.0178V38.0755Z" fill="#1B1D1D"></path><path d="M296.85 18.2383H282.348C279.135 18.2383 276.512 20.8617 276.512 24.0745V38.9008C276.512 42.1137 279.135 44.737 282.348 44.737H296.85C300.063 44.737 302.687 42.1137 302.687 38.9008V24.0745C302.687 20.8617 300.063 18.2383 296.85 18.2383ZM297.499 38.0755C297.499 39.1661 296.615 40.0799 295.494 40.0799H283.233C282.142 40.0799 281.228 39.1956 281.228 38.0755V25.0178C281.228 23.9272 282.112 23.0134 283.233 23.0134H295.494C296.585 23.0134 297.499 23.8977 297.499 25.0178V38.0755Z" fill="#1B1D1D"></path><path d="M216.942 31.2077V23.5735C216.942 20.3901 213.729 18.2383 210.251 18.2383H190.59V44.7076H196.279V36.4249H201.143L209.573 44.7076H216.971L208.718 36.4249H211.046C214.613 36.4249 216.971 33.4773 216.971 31.2077H216.942ZM196.279 31.473V23.5735H209.632C211.577 23.5735 212.196 24.4283 212.196 27.3169C212.196 30.2055 211.724 31.4435 209.484 31.4435H196.279V31.473Z" fill="#1B1D1D"></path><path d="M268.436 18.2383H247.685V44.7076H253.138V36.4249H268.436C271.649 36.4249 274.272 33.8015 274.272 30.5887V24.0451C274.272 20.8322 271.649 18.2089 268.436 18.2089V18.2383ZM268.789 29.8518C268.789 30.795 268.023 31.5614 267.08 31.5614H253.108V23.6029H267.08C268.023 23.6029 268.789 24.3693 268.789 25.3125V29.8813V29.8518Z" fill="#1B1D1D"></path><path d="M385.307 18.2383H370.717C367.504 18.2383 364.88 20.8617 364.88 24.0745V44.7076H370.098V39.343H385.543V44.7076H391.114V24.0745C391.114 20.8617 388.49 18.2383 385.278 18.2383H385.307ZM370.098 34.0373V25.1062C370.098 24.2514 370.776 23.5735 371.63 23.5735H384.01C384.865 23.5735 385.543 24.2514 385.543 25.1062V34.0373H370.098Z" fill="#1B1D1D"></path><path d="M108.088 50.4848C110.593 50.4848 111.595 51.6344 111.595 53.845V55.0535C111.595 57.2642 110.593 58.4138 108.088 58.4138H101.338V61.5382C101.338 61.774 101.22 61.8919 100.984 61.8919H99.2153C98.9795 61.8919 98.8322 61.774 98.8322 61.5382V50.9859C98.8322 50.6617 99.009 50.4848 99.3332 50.4848H108.088ZM101.367 56.2326H107.616C108.736 56.2326 109.119 55.761 109.119 54.7883V54.1693C109.119 53.1966 108.707 52.725 107.616 52.725H101.603C101.603 52.725 101.397 52.7839 101.397 52.9313V56.2621L101.367 56.2326Z" fill="#00ABE4"></path><path d="M122.118 50.4848C124.624 50.4848 125.626 51.6344 125.626 53.845V54.7588C125.626 56.6158 124.918 57.7064 123.209 58.0011L125.979 61.4498C125.979 61.4498 126.068 61.8624 125.773 61.8624H123.68C123.415 61.8624 123.327 61.8035 123.238 61.6561L120.674 58.2664H115.427V61.5087C115.427 61.7445 115.309 61.8624 115.073 61.8624H113.305C113.069 61.8624 112.922 61.7445 112.922 61.5087V50.9564C112.922 50.6322 113.098 50.4553 113.423 50.4553H122.177L122.118 50.4848ZM115.398 56.2915H121.646C122.767 56.2915 123.15 55.8199 123.15 54.8472V54.1693C123.15 53.1966 122.737 52.725 121.646 52.725H115.633C115.633 52.725 115.427 52.7839 115.427 52.9313V56.321L115.398 56.2915Z" fill="#00ABE4"></path><path d="M138.624 50.4848C138.86 50.4848 139.008 50.6027 139.008 50.8385V52.3713C139.008 52.6071 138.89 52.725 138.624 52.725H131.521C129.841 52.725 129.369 53.226 129.369 54.9356V55.1125H138.565C138.801 55.1125 138.919 55.2304 138.919 55.4662V56.7631C138.919 56.9989 138.801 57.1168 138.565 57.1168H129.369V57.3821C129.369 59.0917 129.841 59.5928 131.521 59.5928H138.624C138.86 59.5928 139.008 59.7107 139.008 59.9465V61.5087C139.008 61.7445 138.89 61.8624 138.624 61.8624H131.462C128.161 61.8624 126.893 60.6834 126.893 57.559V54.7588C126.893 51.6344 128.161 50.4553 131.462 50.4553H138.624V50.4848Z" fill="#00ABE4"></path><path d="M143.783 50.4848C144.755 50.4848 145.08 50.6911 145.522 51.7228L148.911 59.5339C148.911 59.5339 149.029 59.6812 149.147 59.6812H149.354C149.354 59.6812 149.53 59.6518 149.589 59.5339L152.979 51.7228C153.421 50.6911 153.745 50.4848 154.718 50.4848H156.457C157.607 50.4848 157.902 50.9269 157.902 52.1649V61.5087C157.902 61.7445 157.784 61.8624 157.518 61.8624H155.868C155.632 61.8624 155.514 61.7445 155.514 61.5087V53.0197C155.514 53.0197 155.484 52.8429 155.396 52.8429H155.249C155.249 52.8429 155.072 52.8723 155.042 52.9608L151.741 60.2413C151.211 61.4203 150.739 61.833 149.648 61.833H148.852C147.762 61.833 147.32 61.4203 146.76 60.2413L143.458 52.9608C143.458 52.9608 143.37 52.8429 143.252 52.8429H143.105C143.105 52.8429 142.987 52.9018 142.987 53.0197V61.5087C142.987 61.7445 142.869 61.8624 142.633 61.8624H140.982C140.747 61.8624 140.599 61.7445 140.599 61.5087V52.1649C140.599 50.9269 140.894 50.4848 142.044 50.4848H143.812H143.783Z" fill="#00ABE4"></path><path d="M161.822 50.4848C162.058 50.4848 162.175 50.6027 162.175 50.8385V61.5087C162.175 61.7445 162.058 61.8624 161.822 61.8624H160.053C159.817 61.8624 159.67 61.7445 159.67 61.5087V50.8385C159.67 50.6027 159.788 50.4848 160.053 50.4848H161.822Z" fill="#00ABE4"></path><path d="M166.125 50.4848C166.361 50.4848 166.479 50.6027 166.479 50.8385V57.3232C166.479 59.0328 166.98 59.5633 168.631 59.5633H173.141C174.821 59.5633 175.292 59.0622 175.292 57.3232V50.8385C175.292 50.6027 175.41 50.4848 175.646 50.4848H177.415C177.65 50.4848 177.768 50.6027 177.768 50.8385V57.5885C177.768 60.7129 176.501 61.8919 173.199 61.8919H168.513C165.212 61.8919 163.944 60.7129 163.944 57.5885V50.8385C163.944 50.6027 164.062 50.4848 164.327 50.4848H166.096H166.125Z" fill="#00ABE4"></path><path d="M182.838 50.4848C183.811 50.4848 184.135 50.6911 184.577 51.7228L187.967 59.5339C187.967 59.5339 188.085 59.6812 188.203 59.6812H188.409C188.409 59.6812 188.586 59.6518 188.645 59.5339L192.034 51.7228C192.477 50.6911 192.801 50.4848 193.774 50.4848H195.513C196.662 50.4848 196.957 50.9269 196.957 52.1649V61.5087C196.957 61.7445 196.839 61.8624 196.574 61.8624H194.923C194.687 61.8624 194.569 61.7445 194.569 61.5087V53.0197C194.569 53.0197 194.54 52.8429 194.451 52.8429H194.304C194.304 52.8429 194.127 52.8723 194.098 52.9608L190.797 60.2413C190.266 61.4203 189.794 61.833 188.704 61.833H187.908C186.817 61.833 186.375 61.4203 185.815 60.2413L182.514 52.9608C182.514 52.9608 182.425 52.8429 182.307 52.8429H182.16C182.16 52.8429 182.042 52.9018 182.042 53.0197V61.5087C182.042 61.7445 181.924 61.8624 181.688 61.8624H180.038C179.802 61.8624 179.655 61.7445 179.655 61.5087V52.1649C179.655 50.9269 179.949 50.4848 181.099 50.4848H182.868H182.838Z" fill="#00ABE4"></path><path d="M213.11 50.4848C215.586 50.4848 216.617 51.6344 216.617 53.845V55.0535C216.617 57.2642 215.615 58.4138 213.11 58.4138H206.36V61.5382C206.36 61.774 206.242 61.8919 206.006 61.8919H204.237C204.002 61.8919 203.854 61.774 203.854 61.5382V50.9859C203.854 50.6617 204.031 50.4848 204.355 50.4848H213.11ZM206.36 56.2326H212.609C213.729 56.2326 214.112 55.761 214.112 54.7883V54.1693C214.112 53.1966 213.699 52.725 212.609 52.725H206.595C206.595 52.725 206.389 52.7839 206.389 52.9313V56.2621L206.36 56.2326Z" fill="#00ABE4"></path><path d="M227.14 50.4848C229.646 50.4848 230.648 51.6344 230.648 53.845V54.7588C230.648 56.6158 229.94 57.7064 228.231 58.0011L231.001 61.4498C231.001 61.4498 231.09 61.8624 230.795 61.8624H228.702C228.437 61.8624 228.349 61.8035 228.231 61.6561L225.666 58.2664H220.42V61.5087C220.42 61.7445 220.302 61.8624 220.066 61.8624H218.297C218.062 61.8624 217.914 61.7445 217.914 61.5087V50.9564C217.914 50.6322 218.062 50.4553 218.415 50.4553H227.17L227.14 50.4848ZM220.39 56.2915H226.639C227.759 56.2915 228.142 55.8199 228.142 54.8472V54.1693C228.142 53.1966 227.73 52.725 226.639 52.725H220.626C220.626 52.725 220.42 52.7839 220.42 52.9313V56.321L220.39 56.2915Z" fill="#00ABE4"></path><path d="M241.495 50.4848C244.796 50.4848 246.064 51.6638 246.064 54.7883V57.5885C246.064 60.7129 244.826 61.8919 241.495 61.8919H236.454C233.153 61.8919 231.886 60.7129 231.886 57.5885V54.7883C231.886 51.6638 233.153 50.4848 236.454 50.4848H241.495ZM234.391 57.4116C234.391 59.1212 234.892 59.6223 236.572 59.6223H241.406C243.087 59.6223 243.558 59.1212 243.558 57.4116V54.9651C243.558 53.2555 243.057 52.7544 241.406 52.7544H236.572C234.892 52.7544 234.391 53.2555 234.391 54.9651V57.4116Z" fill="#00ABE4"></path><path d="M256.999 50.4848C259.504 50.4848 260.507 51.6344 260.507 53.845V55.0535C260.507 57.2642 259.504 58.4138 256.999 58.4138H250.249V61.5382C250.249 61.774 250.131 61.8919 249.895 61.8919H248.127C247.891 61.8919 247.744 61.774 247.744 61.5382V50.9859C247.744 50.6617 247.921 50.4848 248.245 50.4848H256.999ZM250.249 56.2326H256.498C257.618 56.2326 258.001 55.761 258.001 54.7883V54.1693C258.001 53.1966 257.589 52.725 256.498 52.725H250.485C250.485 52.725 250.279 52.7839 250.279 52.9313V56.2621L250.249 56.2326Z" fill="#00ABE4"></path><path d="M273.388 50.4848C273.623 50.4848 273.771 50.6027 273.771 50.8385V52.3713C273.771 52.6071 273.653 52.725 273.388 52.725H266.284C264.604 52.725 264.103 53.226 264.103 54.9356V55.1125H273.299C273.535 55.1125 273.653 55.2304 273.653 55.4662V56.7631C273.653 56.9989 273.535 57.1168 273.299 57.1168H264.103V57.3821C264.103 59.0917 264.574 59.5928 266.284 59.5928H273.388C273.623 59.5928 273.771 59.7107 273.771 59.9465V61.5087C273.771 61.7445 273.653 61.8624 273.388 61.8624H266.225C262.924 61.8624 261.656 60.6834 261.656 57.559V54.7588C261.656 51.6344 262.924 50.4553 266.225 50.4553H273.388V50.4848Z" fill="#00ABE4"></path><path d="M284.559 50.4848C287.064 50.4848 288.067 51.6344 288.067 53.845V54.7588C288.067 56.6158 287.359 57.7064 285.65 58.0011L288.42 61.4498C288.42 61.4498 288.509 61.8624 288.214 61.8624H286.121C285.856 61.8624 285.767 61.8035 285.65 61.6561L283.085 58.2664H277.838V61.5087C277.838 61.7445 277.721 61.8624 277.485 61.8624H275.716C275.48 61.8624 275.333 61.7445 275.333 61.5087V50.9564C275.333 50.6322 275.51 50.4553 275.834 50.4553H284.588L284.559 50.4848ZM277.809 56.2915H284.058C285.178 56.2915 285.561 55.8199 285.561 54.8472V54.1693C285.561 53.1966 285.148 52.725 284.058 52.725H278.045C278.045 52.725 277.838 52.7839 277.838 52.9313V56.321L277.809 56.2915Z" fill="#00ABE4"></path><path d="M301.92 50.4848C302.156 50.4848 302.303 50.6027 302.303 50.8385V52.4302C302.303 52.666 302.185 52.8134 301.92 52.8134H296.821V61.5382C296.821 61.774 296.703 61.8919 296.467 61.8919H294.699C294.463 61.8919 294.345 61.774 294.345 61.5382V52.8134H289.245C289.01 52.8134 288.862 52.6955 288.862 52.4302V50.8385C288.862 50.6027 288.98 50.4848 289.245 50.4848H301.95H301.92Z" fill="#00ABE4"></path><path d="M305.575 50.4848C305.811 50.4848 305.929 50.6027 305.929 50.8385V61.5087C305.929 61.7445 305.811 61.8624 305.575 61.8624H303.807C303.571 61.8624 303.423 61.7445 303.423 61.5087V50.8385C303.423 50.6027 303.541 50.4848 303.807 50.4848H305.575Z" fill="#00ABE4"></path><path d="M319.37 50.4848C319.606 50.4848 319.753 50.6027 319.753 50.8385V52.3713C319.753 52.6071 319.635 52.725 319.37 52.725H312.266C310.586 52.725 310.085 53.226 310.085 54.9356V55.1125H319.281C319.517 55.1125 319.635 55.2304 319.635 55.4662V56.7631C319.635 56.9989 319.517 57.1168 319.281 57.1168H310.085V57.3821C310.085 59.0917 310.557 59.5928 312.266 59.5928H319.37C319.606 59.5928 319.753 59.7107 319.753 59.9465V61.5087C319.753 61.7445 319.635 61.8624 319.37 61.8624H312.207C308.906 61.8624 307.638 60.6834 307.638 57.559V54.7588C307.638 51.6344 308.906 50.4553 312.207 50.4553H319.37V50.4848Z" fill="#00ABE4"></path><path d="M332.604 50.4848C332.84 50.4848 332.958 50.6027 332.958 50.8385V52.3713C332.958 52.6071 332.84 52.725 332.604 52.725H324.44C323.821 52.725 323.585 53.0787 323.585 53.6387V54.1987C323.585 54.7883 323.85 55.1125 324.44 55.1125H330.541C332.428 55.1125 333.4 56.1147 333.4 57.9127V59.2096C333.4 60.8013 332.486 61.8624 330.512 61.8624H321.492C321.256 61.8624 321.109 61.7445 321.109 61.5087V59.9465C321.109 59.7107 321.227 59.5928 321.492 59.5928H330.04C330.659 59.5928 330.895 59.2391 330.895 58.6791V58.0011C330.895 57.4116 330.629 57.0874 330.04 57.0874H323.938C322.082 57.0874 321.079 56.0852 321.079 54.2872V53.1081C321.079 51.5165 321.993 50.4553 323.968 50.4553H332.604V50.4848Z" fill="#00ABE4"></path></g></g><defs><clipPath id="clip0_113_572"><rect width="420" height="78.7003" fill="white" transform="translate(0 0.700256)"></rect></clipPath><clipPath id="clip1_113_572"><rect width="420" height="78.7003" fill="white" transform="translate(0 0.700256)"></rect></clipPath></defs></svg> 